<svg width="162" height="49" viewBox="0 0 162 49" fill="none" xmlns="http://www.w3.org/2000/svg">
<g id="Logo">
<g id="logotype">
<path d="M64 48.5V11.9486H70.5713V15.0996H71.5252C72.1258 14.0842 73.062 13.1915 74.3339 12.4212C75.6057 11.616 77.4252 11.2133 79.7923 11.2133C81.9121 11.2133 83.8728 11.7385 85.6746 12.7888C87.4764 13.8042 88.925 15.3096 90.0202 17.3053C91.1154 19.3009 91.663 21.7166 91.663 24.5525V25.3928C91.663 28.2287 91.1154 30.6444 90.0202 32.64C88.925 34.6357 87.4764 36.1586 85.6746 37.209C83.8728 38.2243 81.9121 38.7319 79.7923 38.7319C78.2025 38.7319 76.8599 38.5394 75.7647 38.1543C74.7048 37.8042 73.8393 37.349 73.168 36.7888C72.5321 36.1937 72.0198 35.5985 71.6312 35.0033H70.6773V48.5H64ZM77.7785 32.9551C79.8629 32.9551 81.5764 32.3074 82.9189 31.012C84.2968 29.6816 84.9857 27.756 84.9857 25.2352V24.7101C84.9857 22.1893 84.2968 20.2812 82.9189 18.9858C81.5411 17.6554 79.8276 16.9902 77.7785 16.9902C75.7294 16.9902 74.0159 17.6554 72.6381 18.9858C71.2602 20.2812 70.5713 22.1893 70.5713 24.7101V25.2352C70.5713 27.756 71.2602 29.6816 72.6381 31.012C74.0159 32.3074 75.7294 32.9551 77.7785 32.9551Z" fill="black"/>
<path d="M136.563 37.9967V1.23523H143.24V21.5591H144.194L152.885 11.9486H161.576L149.44 24.5525L162 37.9967H153.415L144.194 27.651H143.24V37.9967H136.563Z" fill="black"/>
<path d="M119.979 38.7319C117.435 38.7319 115.121 38.2068 113.037 37.1565C110.988 36.1061 109.362 34.5832 108.161 32.5875C106.96 30.5919 106.359 28.1761 106.359 25.3403V24.605C106.359 21.7691 106.96 19.3534 108.161 17.3578C109.362 15.3621 110.988 13.8392 113.037 12.7888C115.121 11.7385 117.435 11.2133 119.979 11.2133C122.487 11.2133 124.642 11.651 126.444 12.5263C128.246 13.4015 129.695 14.6094 130.79 16.1499C131.92 17.6554 132.662 19.3709 133.015 21.2965L126.55 22.6619C126.409 21.6116 126.091 20.6663 125.596 19.826C125.102 18.9858 124.395 18.3206 123.477 17.8304C122.593 17.3403 121.48 17.0952 120.138 17.0952C118.795 17.0952 117.576 17.3928 116.481 17.988C115.421 18.5481 114.573 19.4059 113.938 20.5613C113.337 21.6816 113.037 23.0646 113.037 24.7101V25.2352C113.037 26.8807 113.337 28.2812 113.938 29.4365C114.573 30.5569 115.421 31.4147 116.481 32.0098C117.576 32.57 118.795 32.8501 120.138 32.8501C122.152 32.8501 123.671 32.3425 124.695 31.3271C125.755 30.2768 126.427 28.9114 126.709 27.2309L133.174 28.7538C132.715 30.6094 131.92 32.3074 130.79 33.8479C129.695 35.3534 128.246 36.5438 126.444 37.419C124.642 38.2943 122.487 38.7319 119.979 38.7319Z" fill="black"/>
<path d="M95.6744 37.9967V11.9486H102.352V37.9967H95.6744ZM99.0131 8.90263C97.8119 8.90263 96.7873 8.51751 95.9394 7.74726C95.1268 6.97702 94.7205 5.96171 94.7205 4.70131C94.7205 3.44092 95.1268 2.4256 95.9394 1.65536C96.7873 0.885121 97.8119 0.5 99.0131 0.5C100.25 0.5 101.274 0.885121 102.087 1.65536C102.899 2.4256 103.306 3.44092 103.306 4.70131C103.306 5.96171 102.899 6.97702 102.087 7.74726C101.274 8.51751 100.25 8.90263 99.0131 8.90263Z" fill="black"/>
</g>
<g id="logomark">
<path d="M28 24.5C28 26.7091 26.2091 28.5 24 28.5C21.7909 28.5 20 26.7091 20 24.5C20 22.2909 21.7909 20.5 24 20.5C26.2091 20.5 28 22.2909 28 24.5Z" fill="#F15152"/>
<path fill-rule="evenodd" clip-rule="evenodd" d="M28 24.5C28 26.7091 26.2091 28.5 24 28.5C21.7909 28.5 20 26.7091 20 24.5C20 22.2909 21.7909 20.5 24 20.5C26.2091 20.5 28 22.2909 28 24.5Z" fill="#F15152"/>
<path fill-rule="evenodd" clip-rule="evenodd" d="M12 16.5V48.5H8C3.58172 48.5 0 44.9183 0 40.5V29.5C2.76142 29.5 5 27.2614 5 24.5C5 21.7386 2.76142 19.5 0 19.5V8.5C0 4.08172 3.58172 0.5 8 0.5H40C44.4183 0.5 48 4.08172 48 8.5V19.5C45.2386 19.5 43 21.7386 43 24.5C43 27.2614 45.2386 29.5 48 29.5V40.5C48 44.9183 44.4183 48.5 40 48.5H20V36.5H32C34.2091 36.5 36 34.7091 36 32.5V16.5C36 14.2909 34.2091 12.5 32 12.5H16C13.7909 12.5 12 14.2909 12 16.5Z" fill="#F15152"/>
</g>
</g>
</svg>
